<svg width="163" height="56" viewBox="0 0 163 56" fill="none" xmlns="http://www.w3.org/2000/svg">
<mask id="mask0_43_304" style="mask-type:alpha" maskUnits="userSpaceOnUse" x="0" y="0" width="51" height="51">
<path d="M0 0H50.625V50.625H0V0Z" fill="#D9D9D9"/>
</mask>
<g mask="url(#mask0_43_304)">
<path d="M23.5355 10.8793V2.44177H27.7542V10.8793H23.5355ZM37.5628 16.6801L34.6624 13.7797L40.5687 7.71521L43.5218 10.7211L37.5628 16.6801ZM40.4105 27.7543V23.5355H48.848V27.7543H40.4105ZM23.5355 48.848V40.4105H27.7542V48.848H23.5355ZM13.7269 16.5746L7.71515 10.7211L10.721 7.76794L16.68 13.7269L13.7269 16.5746ZM41.923 42.7369L38.3011 38.3011L37.5628 36.0863L41.923 41.4347V42.7369ZM2.44171 27.7543V23.5355H10.8792V27.7543H2.44171ZM10.721 43.5746L7.76788 40.5687L13.6741 34.6625L15.2034 36.0863L16.7327 37.5629L10.721 43.5746ZM25.6448 38.3011C22.1292 38.3011 19.1409 37.0707 16.68 34.6097C14.2191 32.1488 12.9886 29.1605 12.9886 25.6449C12.9886 22.1293 14.2191 19.141 16.68 16.6801C19.1409 14.2191 22.1292 12.9886 25.6448 12.9886C29.1605 12.9886 32.1487 14.2191 34.6097 16.6801C37.0706 19.141 38.3011 22.1293 38.3011 25.6449C38.3011 29.1605 37.0706 32.1488 34.6097 34.6097C32.1487 37.0707 29.1605 38.3011 25.6448 38.3011ZM25.6448 34.0824C27.9651 34.0824 29.9515 33.2562 31.6038 31.6039C33.2562 29.9515 34.0823 27.9652 34.0823 25.6449C34.0823 23.3246 33.2562 21.3383 31.6038 19.6859C29.9515 18.0336 27.9651 17.2074 25.6448 17.2074C23.3245 17.2074 21.3382 18.0336 19.6859 19.6859C18.0335 21.3383 17.2073 23.3246 17.2073 25.6449C17.2073 27.9652 18.0335 29.9515 19.6859 31.6039C21.3382 33.2562 23.3245 34.0824 25.6448 34.0824Z" fill="#FFCC00"/>
</g>
<mask id="mask1_43_304" style="mask-type:alpha" maskUnits="userSpaceOnUse" x="6" y="6" width="50" height="50">
<path d="M6.28445 6.28448H55.0615V55.0616H6.28445V6.28448Z" fill="#D9D9D9"/>
</mask>
<g mask="url(#mask1_43_304)">
<path d="M46.1191 48.9644L33.3151 36.1604C32.2989 36.9734 31.1303 37.617 29.8092 38.0912C28.4882 38.5654 27.0825 38.8025 25.592 38.8025C21.8999 38.8025 18.7751 37.5238 16.2177 34.9664C13.6603 32.409 12.3816 29.2842 12.3816 25.592C12.3816 21.8999 13.6603 18.7751 16.2177 16.2177C18.7751 13.6603 21.8999 12.3816 25.592 12.3816C29.2842 12.3816 32.409 13.6603 34.9664 16.2177C37.5238 18.7751 38.8025 21.8999 38.8025 25.592C38.8025 27.0825 38.5654 28.4882 38.0912 29.8092C37.617 31.1303 36.9734 32.2989 36.1604 33.3151L48.9644 46.1191L46.1191 48.9644ZM25.592 34.7377C28.1325 34.7377 30.2919 33.8486 32.0703 32.0703C33.8486 30.2919 34.7377 28.1325 34.7377 25.592C34.7377 23.0516 33.8486 20.8922 32.0703 19.1138C30.2919 17.3355 28.1325 16.4463 25.592 16.4463C23.0516 16.4463 20.8922 17.3355 19.1138 19.1138C17.3355 20.8922 16.4463 23.0516 16.4463 25.592C16.4463 28.1325 17.3355 30.2919 19.1138 32.0703C20.8922 33.8486 23.0516 34.7377 25.592 34.7377Z" fill="#0D92F4"/>
</g>
<path d="M132.12 36.6761L126.892 49.2064H125.066L126.799 45.0606L123.442 36.6761H125.407L127.804 43.1733L130.295 36.6761H132.12Z" fill="black"/>
<path d="M120.274 37.9136C120.532 37.4805 120.872 37.1453 121.295 36.9081C121.728 36.6606 122.239 36.5369 122.826 36.5369V38.3623H122.378C121.687 38.3623 121.161 38.5376 120.8 38.8882C120.449 39.2389 120.274 39.8473 120.274 40.7136V45.1997H118.51V36.6761H120.274V37.9136Z" fill="black"/>
<path d="M112.343 45.339C111.538 45.339 110.811 45.1585 110.162 44.7975C109.512 44.4263 109.001 43.9106 108.63 43.2506C108.259 42.5803 108.073 41.8068 108.073 40.9302C108.073 40.0639 108.264 39.2956 108.646 38.6252C109.027 37.9549 109.548 37.4392 110.208 37.0783C110.868 36.7173 111.605 36.5369 112.42 36.5369C113.235 36.5369 113.972 36.7173 114.632 37.0783C115.292 37.4392 115.813 37.9549 116.195 38.6252C116.576 39.2956 116.767 40.0639 116.767 40.9302C116.767 41.7965 116.571 42.5648 116.179 43.2351C115.787 43.9055 115.251 44.4263 114.57 44.7975C113.9 45.1585 113.158 45.339 112.343 45.339ZM112.343 43.8075C112.797 43.8075 113.219 43.6992 113.611 43.4826C114.014 43.2661 114.338 42.9412 114.586 42.5081C114.833 42.0749 114.957 41.549 114.957 40.9302C114.957 40.3114 114.839 39.7906 114.601 39.3678C114.364 38.9346 114.05 38.6098 113.658 38.3932C113.266 38.1766 112.843 38.0683 112.389 38.0683C111.936 38.0683 111.513 38.1766 111.121 38.3932C110.739 38.6098 110.435 38.9346 110.208 39.3678C109.981 39.7906 109.868 40.3114 109.868 40.9302C109.868 41.848 110.1 42.5596 110.564 43.065C111.038 43.56 111.631 43.8075 112.343 43.8075Z" fill="black"/>
<path d="M103.476 45.339C102.806 45.339 102.202 45.2204 101.666 44.9832C101.14 44.7357 100.723 44.4057 100.413 43.9931C100.104 43.5703 99.9387 43.1011 99.9181 42.5854H101.744C101.774 42.9464 101.945 43.2506 102.254 43.4981C102.574 43.7353 102.971 43.8539 103.445 43.8539C103.94 43.8539 104.322 43.7611 104.59 43.5755C104.868 43.3795 105.008 43.132 105.008 42.8329C105.008 42.5132 104.853 42.276 104.543 42.1213C104.244 41.9666 103.765 41.7965 103.105 41.6108C102.465 41.4355 101.945 41.2654 101.542 41.1003C101.14 40.9353 100.79 40.6827 100.49 40.3423C100.202 40.002 100.057 39.5534 100.057 38.9965C100.057 38.5427 100.191 38.1302 100.46 37.759C100.728 37.3774 101.109 37.0783 101.604 36.8617C102.11 36.6452 102.687 36.5369 103.337 36.5369C104.306 36.5369 105.085 36.7844 105.673 37.2794C106.271 37.7641 106.591 38.4293 106.632 39.275H104.868C104.837 38.8934 104.683 38.5891 104.404 38.3623C104.126 38.1354 103.749 38.0219 103.275 38.0219C102.811 38.0219 102.455 38.1096 102.208 38.2849C101.96 38.4602 101.836 38.6923 101.836 38.981C101.836 39.2079 101.919 39.3987 102.084 39.5534C102.249 39.7081 102.45 39.8319 102.687 39.9247C102.924 40.0072 103.275 40.1155 103.739 40.2495C104.358 40.4145 104.863 40.5847 105.255 40.76C105.657 40.925 106.003 41.1725 106.292 41.5026C106.58 41.8326 106.73 42.2709 106.74 42.8175C106.74 43.3022 106.606 43.7353 106.338 44.1169C106.07 44.4985 105.688 44.7975 105.193 45.0141C104.708 45.2307 104.136 45.339 103.476 45.339Z" fill="black"/>
<path d="M97.2006 35.5469C96.8809 35.5469 96.6127 35.4386 96.3961 35.222C96.1796 35.0054 96.0713 34.7373 96.0713 34.4176C96.0713 34.0979 96.1796 33.8298 96.3961 33.6132C96.6127 33.3966 96.8809 33.2883 97.2006 33.2883C97.5099 33.2883 97.7729 33.3966 97.9895 33.6132C98.2061 33.8298 98.3144 34.0979 98.3144 34.4176C98.3144 34.7373 98.2061 35.0054 97.9895 35.222C97.7729 35.4386 97.5099 35.5469 97.2006 35.5469ZM98.0668 36.6761V45.1998H96.3033V36.6761H98.0668Z" fill="black"/>
<path d="M90.6852 43.6219L93.0985 36.6761H94.9703L91.7217 45.1998H89.6178L86.3847 36.6761H88.272L90.6852 43.6219Z" fill="black"/>
<path d="M76.3183 40.8993C76.3183 40.0433 76.4936 39.2853 76.8442 38.6253C77.2052 37.9653 77.6899 37.4548 78.2984 37.0938C78.9171 36.7226 79.6029 36.5369 80.3558 36.5369C80.9127 36.5369 81.4593 36.6607 81.9956 36.9082C82.5421 37.1454 82.9753 37.4651 83.295 37.8673V33.7524H85.074V45.1998H83.295V43.9159C83.0062 44.3284 82.604 44.6687 82.0884 44.9368C81.583 45.205 81.0004 45.3391 80.3403 45.3391C79.5978 45.3391 78.9171 45.1534 78.2984 44.7822C77.6899 44.4006 77.2052 43.8746 76.8442 43.2043C76.4936 42.5236 76.3183 41.7553 76.3183 40.8993ZM83.295 40.9303C83.295 40.3424 83.1712 39.8319 82.9237 39.3988C82.6865 38.9656 82.372 38.6356 81.9801 38.4087C81.5882 38.1819 81.1654 38.0684 80.7116 38.0684C80.2578 38.0684 79.835 38.1819 79.4431 38.4087C79.0512 38.6253 78.7315 38.9502 78.484 39.3833C78.2468 39.8061 78.1282 40.3115 78.1282 40.8993C78.1282 41.4872 78.2468 42.0028 78.484 42.4463C78.7315 42.8897 79.0512 43.2301 79.4431 43.4672C79.8453 43.6941 80.2681 43.8076 80.7116 43.8076C81.1654 43.8076 81.5882 43.6941 81.9801 43.4672C82.372 43.2404 82.6865 42.9103 82.9237 42.4772C83.1712 42.0337 83.295 41.5181 83.295 40.9303Z" fill="black"/>
<path d="M65.8341 40.8992C65.8341 40.0433 66.0094 39.2853 66.36 38.6252C66.721 37.9652 67.2057 37.4547 67.8142 37.0938C68.4329 36.7225 69.1136 36.5369 69.8561 36.5369C70.5265 36.5369 71.1092 36.6709 71.6042 36.9391C72.1095 37.1969 72.5117 37.5218 72.8108 37.9136V36.6761H74.5898V45.1997H72.8108V43.9313C72.5117 44.3335 72.1044 44.6686 71.5887 44.9368C71.0731 45.2049 70.4852 45.339 69.8252 45.339C69.093 45.339 68.4226 45.1533 67.8142 44.7821C67.2057 44.4005 66.721 43.8745 66.36 43.2042C66.0094 42.5235 65.8341 41.7552 65.8341 40.8992ZM72.8108 40.9302C72.8108 40.3423 72.687 39.8319 72.4395 39.3987C72.2023 38.9656 71.8878 38.6355 71.4959 38.4087C71.104 38.1818 70.6812 38.0683 70.2274 38.0683C69.7736 38.0683 69.3508 38.1818 68.9589 38.4087C68.567 38.6252 68.2473 38.9501 67.9998 39.3832C67.7626 39.8061 67.644 40.3114 67.644 40.8992C67.644 41.4871 67.7626 42.0027 67.9998 42.4462C68.2473 42.8896 68.567 43.23 68.9589 43.4672C69.3611 43.6941 69.7839 43.8075 70.2274 43.8075C70.6812 43.8075 71.104 43.6941 71.4959 43.4672C71.8878 43.2403 72.2023 42.9103 72.4395 42.4771C72.687 42.0337 72.8108 41.518 72.8108 40.9302Z" fill="black"/>
<path d="M156.224 13.3715C157.524 13.3715 158.679 13.6499 159.69 14.2068C160.721 14.7637 161.525 15.5888 162.103 16.6819C162.701 17.7751 163 19.0952 163 20.6421V30.6973H159.504V21.1681C159.504 19.6418 159.122 18.4764 158.359 17.672C157.596 16.847 156.554 16.4344 155.234 16.4344C153.914 16.4344 152.862 16.847 152.079 17.672C151.315 18.4764 150.934 19.6418 150.934 21.1681V30.6973H147.407V7.80249H150.934V15.63C151.532 14.9081 152.285 14.3512 153.192 13.9593C154.121 13.5674 155.131 13.3715 156.224 13.3715Z" fill="#0D92F4"/>
<path d="M140.01 16.5272V25.9636C140.01 26.603 140.155 27.067 140.443 27.3558C140.753 27.6239 141.268 27.758 141.99 27.758H144.156V30.6972H141.372C139.783 30.6972 138.566 30.3259 137.721 29.5834C136.875 28.8409 136.452 27.6343 136.452 25.9636V16.5272H134.441V13.6499H136.452V9.41125H140.01V13.6499H144.156V16.5272H140.01Z" fill="#0D92F4"/>
<path d="M131.265 7.80249V30.6973H127.738V7.80249H131.265Z" fill="#0D92F4"/>
<path d="M105.594 22.0962C105.594 20.3843 105.944 18.8683 106.646 17.5482C107.368 16.2281 108.337 15.2072 109.554 14.4853C110.791 13.7427 112.153 13.3715 113.638 13.3715C114.978 13.3715 116.144 13.6396 117.134 14.1759C118.145 14.6915 118.949 15.3412 119.547 16.125V13.6499H123.105V30.6972H119.547V28.1602C118.949 28.9647 118.134 29.635 117.103 30.1713C116.072 30.7075 114.896 30.9757 113.576 30.9757C112.111 30.9757 110.771 30.6044 109.554 29.8619C108.337 29.0987 107.368 28.0468 106.646 26.7061C105.944 25.3448 105.594 23.8082 105.594 22.0962ZM119.547 22.1581C119.547 20.9824 119.3 19.9614 118.805 19.0952C118.33 18.2289 117.701 17.5688 116.917 17.1151C116.134 16.6613 115.288 16.4344 114.38 16.4344C113.473 16.4344 112.627 16.6613 111.843 17.1151C111.06 17.5482 110.42 18.1979 109.925 19.0642C109.451 19.9099 109.214 20.9205 109.214 22.0962C109.214 23.2719 109.451 24.3032 109.925 25.1901C110.42 26.077 111.06 26.7577 111.843 27.2321C112.648 27.6858 113.493 27.9127 114.38 27.9127C115.288 27.9127 116.134 27.6858 116.917 27.2321C117.701 26.7783 118.33 26.1183 118.805 25.252C119.3 24.3651 119.547 23.3338 119.547 22.1581Z" fill="#0D92F4"/>
<path d="M103.298 21.7559C103.298 22.3953 103.257 22.9728 103.175 23.4885H90.1494C90.2525 24.8498 90.7579 25.943 91.6654 26.768C92.573 27.593 93.6868 28.0055 95.0068 28.0055C96.9044 28.0055 98.2451 27.2114 99.0289 25.6233H102.834C102.319 27.1908 101.38 28.4799 100.019 29.4906C98.6782 30.4807 97.0075 30.9757 95.0068 30.9757C93.3774 30.9757 91.9129 30.6147 90.6135 29.8928C89.3347 29.1503 88.324 28.119 87.5815 26.7989C86.8596 25.4582 86.4986 23.9113 86.4986 22.1581C86.4986 20.4049 86.8493 18.8683 87.5505 17.5482C88.2725 16.2075 89.2728 15.1762 90.5516 14.4543C91.8511 13.7324 93.3361 13.3715 95.0068 13.3715C96.6156 13.3715 98.0491 13.7221 99.3073 14.4234C100.566 15.1247 101.545 16.1147 102.247 17.3935C102.948 18.6517 103.298 20.1058 103.298 21.7559ZM99.6167 20.6421C99.5961 19.3427 99.132 18.3011 98.2245 17.5173C97.3169 16.7335 96.1928 16.3416 94.8521 16.3416C93.6352 16.3416 92.5936 16.7335 91.7273 17.5173C90.861 18.2804 90.3454 19.322 90.1804 20.6421H99.6167Z" fill="#0D92F4"/>
<path d="M76.3997 13.3715C77.6992 13.3715 78.8542 13.6499 79.8649 14.2068C80.8962 14.7637 81.7006 15.5888 82.2781 16.6819C82.8763 17.7751 83.1753 19.0952 83.1753 20.6421V30.6973H79.6793V21.1681C79.6793 19.6418 79.2977 18.4764 78.5345 17.672C77.7714 16.847 76.7297 16.4344 75.4097 16.4344C74.0896 16.4344 73.0377 16.847 72.2539 17.672C71.4908 18.4764 71.1092 19.6418 71.1092 21.1681V30.6973H67.5822V7.80249H71.1092V15.63C71.7073 14.9081 72.4602 14.3512 73.3677 13.9593C74.2959 13.5674 75.3066 13.3715 76.3997 13.3715Z" fill="#0D92F4"/>
</svg>
